<?xml version="1.0" encoding="UTF-8"?>
<svg xmlns="http://www.w3.org/2000/svg" width="53" height="53" viewBox="0 0 53 53" fill="none">
  <g clip-path="url(#clip0_1_349)">
    <path d="M14.9478 20.3201C14.3931 18.8264 12.0971 18.853 11.5769 20.3586L7.24419 31.7346C6.52983 33.6362 9.41595 34.7338 10.1462 32.8399L10.8445 31.0068H15.6623L16.3524 32.8355C17.0884 34.739 19.9647 33.6346 19.2579 31.739L14.9646 20.3625C14.9593 20.3483 14.9537 20.3342 14.9478 20.3201ZM12.0272 27.9013L13.2645 24.6529L14.4904 27.9013H12.0272Z" fill="#BCBDBF"></path>
    <path d="M44.3047 22.3542C45.1622 22.3542 45.8574 21.659 45.8574 20.8015C45.8574 19.944 45.1622 19.2488 44.3047 19.2488H39.4872C38.6297 19.2488 37.9344 19.944 37.9344 20.8015V32.2347C37.9344 33.0922 38.6297 33.7874 39.4872 33.7874H44.3047C45.1622 33.7874 45.8574 33.0922 45.8574 32.2347C45.8574 31.3772 45.1622 30.682 44.3047 30.682H41.0399V28.0708H43.9494C44.807 28.0708 45.5022 27.3756 45.5022 26.5181C45.5022 25.6605 44.807 24.9653 43.9494 24.9653H41.0399V22.3542H44.3047Z" fill="#BCBDBF"></path>
    <path d="M28.4232 22.2655C29.2683 22.2655 30.0831 22.5142 30.7796 22.9847C31.4902 23.4648 32.4554 23.278 32.9355 22.5674C33.4156 21.8568 33.2287 20.8917 32.5181 20.4116C31.3063 19.5929 29.8903 19.1602 28.4232 19.1602C24.3857 19.1602 21.1012 22.4448 21.1012 26.4821C21.1012 30.5194 24.3857 33.8041 28.4232 33.8041C32.2697 33.8041 34.9561 30.7932 34.9561 26.4821C34.9561 25.6246 34.2609 24.9294 33.4034 24.9294H29.9517C29.0942 24.9294 28.3989 25.6246 28.3989 26.4821C28.3989 27.3397 29.0942 28.0349 29.9517 28.0349H31.6517C31.2666 29.4635 30.2887 30.6986 28.4232 30.6986C26.0981 30.6986 24.2067 28.8071 24.2067 26.4821C24.2067 24.1571 26.0981 22.2655 28.4232 22.2655Z" fill="#BCBDBF"></path>
    <path d="M51.4473 24.9473C50.5897 24.9473 49.8945 25.6425 49.8945 26.5C49.8945 32.7489 47.4611 38.6237 43.0424 43.0424C38.6237 47.4611 32.7488 49.8945 26.5 49.8945C20.2512 49.8945 14.3763 47.4611 9.95758 43.0424C5.53891 38.6237 3.10547 32.7489 3.10547 26.5C3.10547 20.2511 5.53891 14.3763 9.95758 9.95758C14.3763 5.53891 20.2512 3.10547 26.5 3.10547C29.6337 3.10547 32.6739 3.71404 35.5361 4.9144C37.1703 5.59926 38.7197 6.46879 40.1589 7.50633L38.1007 7.76564C36.0807 8.03033 36.4821 11.0959 38.4889 10.8468L44.0436 10.147C44.8702 10.0786 45.5272 9.28908 45.4405 8.46354L44.9456 2.89005C44.8697 2.03584 44.1154 1.4045 43.2615 1.48069C42.4073 1.55656 41.7763 2.31057 41.8522 3.16468L42.0167 5.01709C40.3751 3.82873 38.6047 2.83333 36.7367 2.05044C33.4925 0.689828 30.0483 0 26.5 0C19.4216 0 12.7669 2.75652 7.76171 7.76171C2.75652 12.7669 0 19.4216 0 26.5C0 33.5784 2.75652 40.2331 7.76171 45.2383C12.7669 50.2435 19.4216 53 26.5 53C33.5784 53 40.2331 50.2435 45.2383 45.2383C50.2435 40.2331 53 33.5784 53 26.5C53 25.6425 52.3048 24.9473 51.4473 24.9473Z" fill="#BCBDBF"></path>
  </g>
  <defs>
    <clipPath id="clip0_1_349">
      <rect width="53" height="53" fill="white"></rect>
    </clipPath>
  </defs>
</svg>
