<?xml version="1.0" encoding="UTF-8"?>
<svg xmlns="http://www.w3.org/2000/svg" width="49" height="49" viewBox="0 0 49 49" fill="none">
  <path d="M24.2217 11.6821C19.0522 11.6821 14.8467 15.8878 14.8467 21.0571C14.8467 26.2265 19.0522 30.4321 24.2217 30.4321C29.3911 30.4321 33.5967 26.2265 33.5967 21.0571C33.5967 15.8878 29.3911 11.6821 24.2217 11.6821ZM24.2217 26.6821C21.1201 26.6821 18.5967 24.1588 18.5967 21.0571C18.5967 17.9555 21.1201 15.4321 24.2217 15.4321C27.3233 15.4321 29.8467 17.9555 29.8467 21.0571C29.8467 24.1588 27.3233 26.6821 24.2217 26.6821ZM24.2217 0.807129C10.7637 0.807129 0.22168 11.3491 0.22168 24.8071C0.22168 38.312 10.8117 48.8071 24.2217 48.8071C37.6487 48.8071 48.2217 38.2926 48.2217 24.8071C48.2217 11.3491 37.6797 0.807129 24.2217 0.807129ZM24.2217 45.0571C19.8161 45.0571 15.7813 43.7175 12.4921 41.4154C14.6992 37.0388 19.2505 34.1821 24.2218 34.1821C29.193 34.1821 33.7441 37.0388 35.9512 41.4153C32.6621 43.7174 28.6274 45.0571 24.2217 45.0571ZM38.8693 38.9194C37.65 36.7888 35.9768 34.9465 33.9377 33.5083C31.0842 31.4958 27.7245 30.4321 24.2218 30.4321C20.719 30.4321 17.3593 31.4958 14.5057 33.5083C12.4666 34.9465 10.7934 36.7888 9.57409 38.9195C6.08855 35.2982 3.97168 30.3457 3.97168 24.8071C3.97168 13.452 12.8666 4.55713 24.2217 4.55713C35.5768 4.55713 44.4717 13.452 44.4717 24.8071C44.4717 30.3456 42.3548 35.2981 38.8693 38.9194Z" fill="#BCBDBF"></path>
</svg>
