<?xml version="1.0" encoding="UTF-8"?>
<svg xmlns="http://www.w3.org/2000/svg" width="42" height="42" viewBox="0 0 42 42" fill="none">
  <path d="M34.7952 24.8651L28.3644 22.3914C28.8017 20.323 28.3896 18.0819 27.0571 16.2471L33.7777 9.52653C37.173 11.5923 41.575 9.14201 41.575 5.13573C41.575 2.3039 39.271 0 36.4392 0C32.4296 0 29.9847 4.4054 32.0484 7.79726L25.3279 14.5178C22.4425 12.4225 18.4868 12.5659 15.7558 14.9055L12.3355 11.9982C14.0419 8.60202 11.5605 4.56509 7.74435 4.56509C4.91253 4.56509 2.60862 6.869 2.60862 9.70082C2.60862 13.9039 7.3908 16.2958 10.7508 13.8608L14.1705 16.7676C12.5529 19.4204 12.6809 22.7982 14.5179 25.3279L10.0448 29.8008C5.81414 26.9327 0 29.9565 0 35.1349C0 38.686 2.88897 41.575 6.44004 41.575C11.6141 41.575 14.6454 35.7652 11.774 31.5302L16.2471 27.0572C18.1216 28.4185 20.4622 28.8445 22.6414 28.3071L25.4215 34.8784C22.7917 37.2119 24.4462 41.575 27.9612 41.575C30.0739 41.575 31.7926 39.8562 31.7926 37.7435C31.7926 35.5481 29.9266 33.7557 27.6732 33.9241L24.8926 27.3514C25.9581 26.6826 26.8502 25.762 27.4843 24.6732L33.9163 27.1474C33.8246 29.3385 35.582 31.1405 37.7435 31.1405C39.8562 31.1405 41.575 29.4217 41.575 27.309C41.575 23.7553 37.0925 22.0985 34.7952 24.8651ZM36.4392 2.44559C37.9226 2.44559 39.1294 3.6524 39.1294 5.13573C39.1294 6.61906 37.9226 7.82587 36.4392 7.82587C34.9559 7.82587 33.7491 6.61906 33.7491 5.13573C33.7491 3.6524 34.9559 2.44559 36.4392 2.44559ZM7.74435 12.391C6.26102 12.391 5.05421 11.1842 5.05421 9.70082C5.05421 8.21749 6.26102 7.01068 7.74435 7.01068C9.22768 7.01068 10.4345 8.21749 10.4345 9.70082C10.4345 11.1842 9.22768 12.391 7.74435 12.391ZM6.44004 39.1294C4.23747 39.1294 2.44559 37.3375 2.44559 35.1349C2.44559 32.9323 4.23747 31.1405 6.44004 31.1405C8.64262 31.1405 10.4345 32.9323 10.4345 35.1349C10.4345 37.3375 8.64262 39.1294 6.44004 39.1294ZM27.9612 36.3577C28.7254 36.3577 29.347 36.9794 29.347 37.7435C29.347 38.5077 28.7254 39.1294 27.9612 39.1294C27.197 39.1294 26.5754 38.5077 26.5754 37.7435C26.5754 36.9794 27.197 36.3577 27.9612 36.3577ZM20.7875 26.0862C17.8657 26.0862 15.4887 23.7092 15.4887 20.7875C15.4887 17.8657 17.8657 15.4887 20.7875 15.4887C23.7092 15.4887 26.0862 17.8657 26.0862 20.7875C26.0862 23.7092 23.7092 26.0862 20.7875 26.0862ZM37.7435 28.6949C36.9794 28.6949 36.3577 28.0732 36.3577 27.309C36.3577 26.5449 36.9794 25.9232 37.7435 25.9232C38.5077 25.9232 39.1294 26.5449 39.1294 27.309C39.1294 28.0732 38.5077 28.6949 37.7435 28.6949Z" fill="#BCBDBF"></path>
</svg>
