<?xml version="1.0" encoding="UTF-8"?>
<svg xmlns="http://www.w3.org/2000/svg" width="43" height="42" viewBox="0 0 43 42" fill="none">
  <path d="M37.6425 19.0287C36.395 19.0287 35.1475 18.5538 34.1978 17.6042L24.9417 8.34814C20.5604 3.58724 27.0756 -2.92082 31.8312 1.45853L41.0873 10.7146C44.1544 13.7688 41.9207 19.0575 37.6425 19.0287ZM28.3864 3.28023C26.9597 3.27073 26.2162 5.03423 27.2382 6.05163L36.4943 15.3077C38.0812 16.7681 40.2505 14.5964 38.7908 13.0112L29.5347 3.75514C29.2182 3.43853 28.8023 3.28023 28.3864 3.28023ZM15.0707 41.6006C13.8231 41.6006 12.5757 41.1257 11.6259 40.1761L2.36979 30.92C-2.01147 26.1592 4.50379 19.6511 9.25939 24.0304L18.5155 33.2865C21.5825 36.3407 19.3488 41.6294 15.0707 41.6006ZM5.81459 25.8521C4.38789 25.8426 3.64429 27.6061 4.66629 28.6235L13.9224 37.8796C15.5094 39.34 17.6787 37.1683 16.2189 35.5831L6.96279 26.327C6.64619 26.0104 6.23039 25.8521 5.81459 25.8521ZM17.0193 27.1505C16.6013 27.1505 16.1837 26.9902 15.8661 26.67C15.2347 26.0331 15.2391 25.0049 15.876 24.3735L25.3757 14.955C26.9661 13.4988 29.1313 15.6851 27.6623 17.2613L18.1626 26.6798C17.846 26.9937 17.4325 27.1505 17.0193 27.1505ZM40.5771 4.26534L42.0386 2.80384C43.5015 1.21964 41.3245 -0.954965 39.7421 0.507335L38.2806 1.96884C37.2564 2.98714 38.0037 4.74963 39.4289 4.74093C39.8444 4.74093 40.26 4.58244 40.5771 4.26534ZM3.71509 41.1273L5.17659 39.6659C6.63939 38.0817 4.46249 35.9071 2.88009 37.3694L1.41859 38.8309C0.394393 39.8492 1.14159 41.6117 2.56679 41.603C2.98239 41.603 3.39789 41.4444 3.71509 41.1273Z" fill="#BCBDBF"></path>
</svg>
