<?xml version="1.0" encoding="UTF-8"?>
<svg xmlns="http://www.w3.org/2000/svg" width="43" height="42" viewBox="0 0 43 42" fill="none">
  <path d="M18.1313 41.6073H10.25C4.8739 41.6073 0.5 37.2334 0.5 31.8573V9.75732C0.5 4.38112 4.8739 0.00732422 10.25 0.00732422H25.2C30.5762 0.00732422 34.95 4.38112 34.95 9.75732V15.0385C34.8642 17.1946 31.7851 17.193 31.7 15.0385V9.75732C31.7 6.17322 28.7841 3.25732 25.2 3.25732H10.25C6.6659 3.25732 3.75 6.17322 3.75 9.75732V31.8573C3.75 35.4414 6.6659 38.3573 10.25 38.3573H18.1313C20.2873 38.4431 20.2857 41.5222 18.1313 41.6073ZM26.5 7.96982C26.4142 5.81402 23.3352 5.81512 23.25 7.96982C23.25 9.31382 22.1565 10.4073 20.8125 10.4073H14.6375C13.2935 10.4073 12.2 9.31382 12.2 7.96982C12.2 7.07232 11.4725 6.34482 10.575 6.34482C9.6775 6.34482 8.95 7.07232 8.95 7.96982C8.95 11.1059 11.5014 13.6573 14.6375 13.6573H20.8125C23.9486 13.6573 26.5 11.1059 26.5 7.96982ZM42.1 30.6385C42.1 24.5904 37.1794 19.6698 31.1313 19.6698C16.5791 20.2724 16.5847 41.0074 31.1313 41.6073C37.1794 41.6073 42.1 36.6867 42.1 30.6385ZM38.85 30.6385C38.85 34.8947 35.3874 38.3573 31.1313 38.3573C20.8908 37.9332 20.8948 23.3419 31.1313 22.9198C35.3874 22.9198 38.85 26.3824 38.85 30.6385ZM33.8927 32.2635H31.1313C30.2338 32.2635 29.5063 31.536 29.5063 30.6385V27.3073C29.5921 25.1512 32.6712 25.1529 32.7563 27.3073V29.0135H33.8927C36.0488 29.0993 36.0471 32.1785 33.8927 32.2635ZM21.8688 19.3448C21.8688 18.4473 21.1412 17.7198 20.2438 17.7198H11.0625C8.9065 17.8056 8.9081 20.8847 11.0625 20.9698H20.2438C21.1412 20.9698 21.8688 20.2423 21.8688 19.3448ZM17.8063 25.8448C17.8063 24.9473 17.0787 24.2198 16.1813 24.2198H11.0625C8.9065 24.3056 8.9081 27.3847 11.0625 27.4698H16.1813C17.0787 27.4698 17.8063 26.7423 17.8063 25.8448ZM16.9938 32.3448C16.9938 31.4473 16.2662 30.7198 15.3688 30.7198H11.0625C8.9065 30.8056 8.9081 33.8847 11.0625 33.9698H15.3688C16.2662 33.9698 16.9938 33.2423 16.9938 32.3448Z" fill="#BCBDBF"></path>
</svg>
