<?xml version="1.0" encoding="UTF-8"?>
<svg xmlns="http://www.w3.org/2000/svg" width="51" height="51" viewBox="0 0 51 51" fill="none">
  <g clip-path="url(#clip0_1_295)">
    <path d="M1.99219 11.9531C3.09247 11.9531 3.98438 11.0612 3.98438 9.96094V5.97656C3.98438 4.87807 4.87807 3.98438 5.97656 3.98438H9.96094C11.0612 3.98438 11.9531 3.09247 11.9531 1.99219C11.9531 0.891902 11.0612 0 9.96094 0H5.97656C2.68109 0 0 2.68109 0 5.97656V9.96094C0 11.0612 0.891902 11.9531 1.99219 11.9531Z" fill="#BCBDBF"></path>
    <path d="M41.0391 3.98438H45.0234C46.1219 3.98438 47.0156 4.87807 47.0156 5.97656V9.96094C47.0156 11.0612 47.9075 11.9531 49.0078 11.9531C50.1081 11.9531 51 11.0612 51 9.96094V5.97656C51 2.68109 48.3189 0 45.0234 0H41.0391C39.9388 0 39.0469 0.891902 39.0469 1.99219C39.0469 3.09247 39.9388 3.98438 41.0391 3.98438Z" fill="#BCBDBF"></path>
    <path d="M41.0391 51H45.0234C48.3189 51 51 48.3189 51 45.0234V41.0391C51 39.9388 50.1081 39.0469 49.0078 39.0469C47.9075 39.0469 47.0156 39.9388 47.0156 41.0391V45.0234C47.0156 46.1219 46.1219 47.0156 45.0234 47.0156H41.0391C39.9388 47.0156 39.0469 47.9075 39.0469 49.0078C39.0469 50.1081 39.9388 51 41.0391 51Z" fill="#BCBDBF"></path>
    <path d="M5.97656 51H9.96094C11.0612 51 11.9531 50.1081 11.9531 49.0078C11.9531 47.9075 11.0612 47.0156 9.96094 47.0156H5.97656C4.87807 47.0156 3.98438 46.1219 3.98438 45.0234V41.0391C3.98438 39.9388 3.09247 39.0469 1.99219 39.0469C0.891902 39.0469 0 39.9388 0 41.0391V45.0234C0 48.3189 2.68109 51 5.97656 51Z" fill="#BCBDBF"></path>
    <path d="M31.4766 9.5625C31.4766 6.26702 28.7955 3.58594 25.5 3.58594C22.2045 3.58594 19.5234 6.26702 19.5234 9.5625C19.5234 12.858 22.2045 15.5391 25.5 15.5391C28.7955 15.5391 31.4766 12.858 31.4766 9.5625ZM25.5 11.5547C24.4015 11.5547 23.5078 10.661 23.5078 9.5625C23.5078 8.46401 24.4015 7.57031 25.5 7.57031C26.5985 7.57031 27.4922 8.46401 27.4922 9.5625C27.4922 10.661 26.5985 11.5547 25.5 11.5547Z" fill="#BCBDBF"></path>
    <path d="M3.58594 29.4844C3.58594 30.5847 4.47784 31.4766 5.57812 31.4766H19.5234V41.4375C19.5234 44.733 22.2045 47.4141 25.5 47.4141C28.7955 47.4141 31.4766 44.733 31.4766 41.4375V37.4531C31.4766 36.3528 30.5847 35.4609 29.4844 35.4609C28.3841 35.4609 27.4922 36.3528 27.4922 37.4531V41.4375C27.4922 42.536 26.5985 43.4297 25.5 43.4297C24.4015 43.4297 23.5078 42.536 23.5078 41.4375V31.4766H45.4219C46.5222 31.4766 47.4141 30.5847 47.4141 29.4844C47.4141 28.3841 46.5222 27.4922 45.4219 27.4922H35.1183C35.3394 26.8686 35.4609 26.1984 35.4609 25.5V21.5156C35.4609 18.2201 32.7799 15.5391 29.4844 15.5391H21.5156C18.2201 15.5391 15.5391 18.2201 15.5391 21.5156V25.5C15.5391 26.1984 15.6605 26.8686 15.8815 27.4922H5.57812C4.47784 27.4922 3.58594 28.3841 3.58594 29.4844ZM19.5234 25.5V21.5156C19.5234 20.4171 20.4171 19.5234 21.5156 19.5234H29.4844C30.5829 19.5234 31.4766 20.4171 31.4766 21.5156V25.5C31.4766 26.5985 30.5829 27.4922 29.4844 27.4922H21.5156C20.4171 27.4922 19.5234 26.5985 19.5234 25.5Z" fill="#BCBDBF"></path>
  </g>
  <defs>
    <clipPath id="clip0_1_295">
      <rect width="51" height="51" fill="white"></rect>
    </clipPath>
  </defs>
</svg>
