<?xml version="1.0" encoding="UTF-8"?>
<svg xmlns="http://www.w3.org/2000/svg" width="47" height="47" viewBox="0 0 47 47" fill="none">
  <g clip-path="url(#clip0_1_276)">
    <path d="M35.4336 21.1133C36.4476 21.1133 37.2695 20.2913 37.2695 19.2773C37.2695 18.2634 36.4476 17.4414 35.4336 17.4414C34.4196 17.4414 33.5977 18.2634 33.5977 19.2773C33.5977 20.2913 34.4196 21.1133 35.4336 21.1133Z" fill="#BCBDBF"></path>
    <path d="M39.6562 3.67188H37.2695V1.83594C37.2695 0.821949 36.4476 0 35.4336 0C34.4196 0 33.5977 0.821949 33.5977 1.83594V3.67188H25.2441V1.83594C25.2441 0.821949 24.4222 0 23.4082 0C22.3942 0 21.5723 0.821949 21.5723 1.83594V3.67188H13.3105V1.83594C13.3105 0.821949 12.4886 0 11.4746 0C10.4606 0 9.63867 0.821949 9.63867 1.83594V3.67188H7.34375C3.29441 3.67188 0 6.96628 0 11.0156V39.6562C0 43.7056 3.29441 47 7.34375 47H21.3887C22.4027 47 23.2246 46.1781 23.2246 45.1641C23.2246 44.1501 22.4027 43.3281 21.3887 43.3281H7.34375C5.31908 43.3281 3.67188 41.6809 3.67188 39.6562V11.0156C3.67188 8.99095 5.31908 7.34375 7.34375 7.34375H9.63867V9.17969C9.63867 10.1937 10.4606 11.0156 11.4746 11.0156C12.4886 11.0156 13.3105 10.1937 13.3105 9.17969V7.34375H21.5723V9.17969C21.5723 10.1937 22.3942 11.0156 23.4082 11.0156C24.4222 11.0156 25.2441 10.1937 25.2441 9.17969V7.34375H33.5977V9.17969C33.5977 10.1937 34.4196 11.0156 35.4336 11.0156C36.4476 11.0156 37.2695 10.1937 37.2695 9.17969V7.34375H39.6562C41.6809 7.34375 43.3281 8.99095 43.3281 11.0156V21.4805C43.3281 22.4945 44.1501 23.3164 45.1641 23.3164C46.1781 23.3164 47 22.4945 47 21.4805V11.0156C47 6.96628 43.7056 3.67188 39.6562 3.67188Z" fill="#BCBDBF"></path>
    <path d="M35.8926 24.7852C29.7679 24.7852 24.7852 29.7679 24.7852 35.8926C24.7852 42.0173 29.7679 47 35.8926 47C42.0173 47 47 42.0173 47 35.8926C47 29.7679 42.0173 24.7852 35.8926 24.7852ZM35.8926 43.3281C31.7927 43.3281 28.457 39.9926 28.457 35.8926C28.457 31.7926 31.7927 28.457 35.8926 28.457C39.9925 28.457 43.3281 31.7926 43.3281 35.8926C43.3281 39.9926 39.9925 43.3281 35.8926 43.3281Z" fill="#BCBDBF"></path>
    <path d="M38.5547 34.0566H37.7285V32.1289C37.7285 31.1149 36.9066 30.293 35.8926 30.293C34.8786 30.293 34.0566 31.1149 34.0566 32.1289V35.8926C34.0566 36.9066 34.8786 37.7285 35.8926 37.7285H38.5547C39.5687 37.7285 40.3906 36.9066 40.3906 35.8926C40.3906 34.8786 39.5687 34.0566 38.5547 34.0566Z" fill="#BCBDBF"></path>
    <path d="M27.4473 21.1133C28.4612 21.1133 29.2832 20.2913 29.2832 19.2773C29.2832 18.2634 28.4612 17.4414 27.4473 17.4414C26.4333 17.4414 25.6113 18.2634 25.6113 19.2773C25.6113 20.2913 26.4333 21.1133 27.4473 21.1133Z" fill="#BCBDBF"></path>
    <path d="M19.4609 29.0996C20.4749 29.0996 21.2969 28.2776 21.2969 27.2637C21.2969 26.2497 20.4749 25.4277 19.4609 25.4277C18.447 25.4277 17.625 26.2497 17.625 27.2637C17.625 28.2776 18.447 29.0996 19.4609 29.0996Z" fill="#BCBDBF"></path>
    <path d="M11.4746 21.1133C12.4886 21.1133 13.3105 20.2913 13.3105 19.2773C13.3105 18.2634 12.4886 17.4414 11.4746 17.4414C10.4606 17.4414 9.63867 18.2634 9.63867 19.2773C9.63867 20.2913 10.4606 21.1133 11.4746 21.1133Z" fill="#BCBDBF"></path>
    <path d="M11.4746 29.0996C12.4886 29.0996 13.3105 28.2776 13.3105 27.2637C13.3105 26.2497 12.4886 25.4277 11.4746 25.4277C10.4606 25.4277 9.63867 26.2497 9.63867 27.2637C9.63867 28.2776 10.4606 29.0996 11.4746 29.0996Z" fill="#BCBDBF"></path>
    <path d="M11.4746 37.0859C12.4886 37.0859 13.3105 36.264 13.3105 35.25C13.3105 34.236 12.4886 33.4141 11.4746 33.4141C10.4606 33.4141 9.63867 34.236 9.63867 35.25C9.63867 36.264 10.4606 37.0859 11.4746 37.0859Z" fill="#BCBDBF"></path>
    <path d="M19.4609 37.0859C20.4749 37.0859 21.2969 36.264 21.2969 35.25C21.2969 34.236 20.4749 33.4141 19.4609 33.4141C18.447 33.4141 17.625 34.236 17.625 35.25C17.625 36.264 18.447 37.0859 19.4609 37.0859Z" fill="#BCBDBF"></path>
    <path d="M19.4609 21.1133C20.4749 21.1133 21.2969 20.2913 21.2969 19.2773C21.2969 18.2634 20.4749 17.4414 19.4609 17.4414C18.447 17.4414 17.625 18.2634 17.625 19.2773C17.625 20.2913 18.447 21.1133 19.4609 21.1133Z" fill="#BCBDBF"></path>
  </g>
  <defs>
    <clipPath id="clip0_1_276">
      <rect width="47" height="47" fill="white"></rect>
    </clipPath>
  </defs>
</svg>
