<?xml version="1.0" encoding="UTF-8"?>
<svg xmlns="http://www.w3.org/2000/svg" width="55" height="55" viewBox="0 0 55 55" fill="none">
  <g clip-path="url(#clip0_1_359)">
    <path d="M54.5281 19.9984L48.345 13.8153L52.0871 10.073C52.7164 9.44377 52.7164 8.42358 52.0871 7.7943L47.2056 2.91273C46.5765 2.28345 45.5562 2.28345 44.9269 2.91273L41.1847 6.65499L35.0017 0.471998C34.3726 -0.157386 33.3523 -0.157279 32.7229 0.471998L22.9597 10.2353C22.3304 10.8645 22.3304 11.8847 22.9597 12.514L29.1428 18.6971L18.6971 29.1428L12.514 22.9597C11.8847 22.3303 10.8639 22.331 10.2352 22.9597L0.47208 32.7228C-0.157197 33.3521 -0.157197 34.3723 0.47208 35.0016L6.65518 41.1847L2.91303 44.9269C2.28375 45.5562 2.28375 46.5764 2.91303 47.2057L7.79449 52.0872C8.42366 52.7165 9.44396 52.7165 10.0732 52.0872L13.8155 48.345L19.9986 54.5281C20.6276 55.1575 21.6479 55.1574 22.2773 54.5281L32.0406 44.7648C32.6699 44.1356 32.6699 43.1154 32.0406 42.4861L25.8575 36.303L36.3032 25.8573L42.4863 32.0404C43.1156 32.6698 44.1364 32.6691 44.765 32.0404L54.5283 22.277C55.1574 21.6479 55.1574 20.6277 54.5281 19.9984ZM46.0663 6.33089L48.6691 8.93362L46.0663 11.5365L43.4635 8.93362L46.0663 6.33089ZM8.93381 48.6691L6.33108 46.0664L8.93381 43.4635L11.5366 46.0664L8.93381 48.6691ZM21.1378 51.1098L3.89014 33.8622L6.49297 31.2593L23.7406 48.5071L21.1378 51.1098ZM28.6223 43.6254L26.0195 46.2282L8.77171 28.9806L11.3745 26.3778L28.6223 43.6254ZM23.5786 34.0243L20.9758 31.4214L31.4215 20.9758L34.0243 23.5787L23.5786 34.0243ZM43.6255 28.6223L26.3778 11.3746L28.9807 8.77173L46.2283 26.0195L43.6255 28.6223ZM48.5071 23.7407L31.2594 6.49289L33.8622 3.89016L51.1099 21.1378L48.5071 23.7407Z" fill="#BCBDBF"></path>
  </g>
  <defs>
    <clipPath id="clip0_1_359">
      <rect width="55" height="55" fill="white"></rect>
    </clipPath>
  </defs>
</svg>
