<?xml version="1.0" encoding="UTF-8"?>
<svg xmlns="http://www.w3.org/2000/svg" width="52" height="52" viewBox="0 0 52 52" fill="none">
  <g clip-path="url(#clip0_1_377)">
    <path d="M50.7391 20.6204L43.2524 14.3814V6.72372C43.2524 5.89239 42.5785 5.21842 41.7471 5.21842H32.2732L26.6764 0.367821C26.1105 -0.122607 25.2705 -0.122607 24.7047 0.367821L19.1078 5.21842H9.63395C8.80262 5.21842 8.12864 5.89239 8.12864 6.72372V14.3814L0.641951 20.6204C0.298841 20.9063 0.100342 21.33 0.100342 21.7768V49.8758C0.100342 50.7072 0.774317 51.3811 1.60565 51.3811H49.7754C50.6068 51.3811 51.2807 50.7072 51.2807 49.8758V21.7768C51.2807 21.33 51.0822 20.9063 50.7391 20.6204ZM17.2174 35.8263L3.11095 46.7981V24.8545L17.2174 35.8263ZM20.1857 37.3316H31.1952L45.3882 48.3705H5.99291L20.1857 37.3316ZM34.1637 35.8263L48.2701 24.8545V46.7981L34.1637 35.8263ZM47.3756 21.7363L43.2524 24.9432V18.3003L47.3756 21.7363ZM25.6905 3.49735L27.6764 5.21842H23.7046L25.6905 3.49735ZM40.2418 8.22903V27.2848L31.1953 34.321H20.1857L11.1393 27.2848V8.22903H40.2418ZM8.12864 24.9432L4.00551 21.7363L8.12864 18.3004V24.9432Z" fill="#BCBDBF"></path>
    <path d="M18.9656 29.9799C20.8142 31.4201 23.117 32.2488 25.4497 32.3133C25.4639 32.3137 25.478 32.3139 25.4921 32.3139C26.3042 32.3139 26.9735 31.6671 26.996 30.8502C27.019 30.0192 26.3639 29.3268 25.533 29.3039C21.9944 29.2059 18.8928 26.7412 17.9904 23.3099C16.9037 19.1779 19.2439 14.9253 23.3182 13.6283C25.3851 12.9704 27.5796 13.1641 29.4967 14.1739C31.4072 15.1799 32.8048 16.8698 33.4343 18.9337C33.8265 20.4226 33.6932 21.8146 32.9901 23.5825C32.8167 24.0182 32.2826 25.0316 31.0679 25.0316C30.9336 25.0316 30.814 24.9316 30.7547 24.8719C30.5833 24.6997 30.4817 24.4434 30.483 24.1867L30.5245 15.8238C30.5286 14.9924 29.8579 14.3151 29.0266 14.311C29.0241 14.311 29.0216 14.311 29.019 14.311C28.2845 14.311 27.6728 14.8382 27.5411 15.536C26.8621 15.1788 26.1063 14.9892 25.311 14.9892C23.865 14.9892 22.4488 15.6391 21.4255 16.7721C20.3878 17.9211 19.8164 19.4843 19.8164 21.1736C19.8164 22.8555 20.3535 24.4355 21.3287 25.6229C22.3401 26.8543 23.7547 27.5607 25.2096 27.5607C26.3234 27.5607 27.3465 27.1636 28.1901 26.4775C28.3184 26.6618 28.4616 26.8359 28.6206 26.9956C29.2922 27.6707 30.1614 28.0424 31.0679 28.0424C33.5663 28.0424 35.144 26.3134 35.7876 24.6952C36.7397 22.3014 36.9092 20.2778 36.337 18.1342C36.3328 18.1186 36.3284 18.1029 36.3237 18.0874C35.4628 15.2347 33.5365 12.8989 30.8996 11.5102C28.2632 10.1216 25.2463 9.85513 22.4049 10.7597C19.7118 11.617 17.4715 13.4648 16.0967 15.9626C14.7215 18.4612 14.3599 21.3425 15.0787 24.0758C15.7012 26.4421 17.0453 28.4837 18.9656 29.9799ZM25.2097 24.5501C24.0591 24.5501 22.8271 23.1933 22.8271 21.1736C22.8271 19.187 24.0901 17.9998 25.3111 17.9998C26.5543 17.9998 27.4343 19.2129 27.4884 20.9714L27.4865 21.3498C27.415 23.1324 26.4214 24.5501 25.2097 24.5501Z" fill="#BCBDBF"></path>
  </g>
  <defs>
    <clipPath id="clip0_1_377">
      <rect width="51.3811" height="51.3811" fill="white"></rect>
    </clipPath>
  </defs>
</svg>
