<?xml version="1.0" encoding="UTF-8"?>
<svg xmlns="http://www.w3.org/2000/svg" width="56" height="56" viewBox="0 0 56 56" fill="none">
  <path d="M56 21.377C56 13.2352 49.3761 6.61139 41.2344 6.61139C33.0926 6.61139 26.4688 13.2352 26.4688 21.377C26.4688 25.3835 28.0735 29.0218 30.673 31.6846C28.231 33.4054 25.2352 34.5559 22.1744 34.9365C22.8558 33.0897 23.1112 31.1116 22.893 29.1259C22.6077 26.5302 21.5467 24.2028 19.9558 22.5662C22.269 20.0314 23.3571 16.5461 22.8379 13.0596C22.125 8.27258 18.3067 4.34634 13.5524 3.5117C10.1531 2.91484 6.70895 3.8278 4.10298 6.01617C1.49548 8.20586 0 11.4131 0 14.8155V16.773C0 29.947 5.60098 43.0525 17.619 52.667C22.8809 51.6142 27.5357 49.9758 32.4004 46.4577C36.2336 43.6855 39.4813 40.1287 41.8412 36.1292C49.7026 35.8096 56 29.3155 56 21.377ZM18.48 49.145C8.81103 41.1239 3.28125 29.3693 3.28125 16.773V14.8155C3.28125 12.3851 4.34984 10.0938 6.21305 8.52906C8.10206 6.94269 10.5069 6.30842 12.9851 6.74362C16.314 7.32801 19.0928 10.1876 19.5925 13.5431C20.0447 16.5802 18.8729 19.4945 16.4577 21.3388L14.5539 22.7927L16.5974 24.0424C18.2082 25.0273 19.3706 27.1126 19.6314 29.4844C19.9602 32.4756 18.8313 35.4628 16.5344 37.6801L18.8134 40.0409C19.3482 39.5246 19.8338 38.975 20.2705 38.399L21.6412 38.2892C25.9257 37.946 30.0279 36.3686 33.2991 33.8241C34.7651 34.762 36.4071 35.4475 38.1632 35.8205C33.7002 42.5249 26.5232 47.4133 18.48 49.145ZM41.2344 32.8614C34.9019 32.8614 29.75 27.7095 29.75 21.377C29.75 15.0445 34.9019 9.89264 41.2344 9.89264C47.5669 9.89264 52.7188 15.0445 52.7188 21.377C52.7188 27.7095 47.5669 32.8614 41.2344 32.8614Z" fill="#BCBDBF"></path>
  <path d="M45.8749 14.4164L43.3552 16.9362C42.7126 16.6281 41.9934 16.4551 41.2344 16.4551C40.4755 16.4551 39.7562 16.6281 39.1136 16.9362L36.594 14.4164L34.2738 16.7366L36.7935 19.2563C36.4854 19.8989 36.3124 20.6182 36.3124 21.377C36.3124 22.1358 36.4854 22.8551 36.7935 23.4977L34.2738 26.0175L36.594 28.3376L39.1136 25.8178C39.7562 26.126 40.4755 26.2989 41.2344 26.2989C41.9934 26.2989 42.7126 26.126 43.3552 25.8178L45.8749 28.3376L48.1951 26.0175L45.6754 23.4977C45.9835 22.8551 46.1564 22.1358 46.1564 21.377C46.1564 20.6182 45.9835 19.8989 45.6754 19.2563L48.1951 16.7366L45.8749 14.4164ZM41.2344 23.0176C40.3298 23.0176 39.5938 22.2816 39.5938 21.377C39.5938 20.4724 40.3298 19.7364 41.2344 19.7364C42.1391 19.7364 42.8751 20.4724 42.8751 21.377C42.8751 22.2816 42.1391 23.0176 41.2344 23.0176Z" fill="#BCBDBF"></path>
</svg>
