<?xml version="1.0" encoding="UTF-8"?>
<svg xmlns="http://www.w3.org/2000/svg" width="53" height="53" viewBox="0 0 53 53" fill="none">
  <g clip-path="url(#clip0_1_317)">
    <path d="M49.1093 12.6742L51.6798 10.1041C52.1068 9.67669 52.2475 9.04023 52.0401 8.47292C51.8326 7.9052 51.3146 7.50974 50.7121 7.45879L45.9436 7.05645L45.5412 2.28786C45.4907 1.68577 45.0948 1.16779 44.5275 0.96035C43.9602 0.75251 43.3237 0.893227 42.8963 1.32063L40.3258 3.89073C36.169 1.34206 31.4162 0 26.5 0C19.4217 0 12.7668 2.75651 7.76165 7.76165C2.75651 12.7668 0 19.4217 0 26.5C0 33.5783 2.75651 40.2332 7.76165 45.2383C12.7668 50.2435 19.4217 53 26.5 53C33.5783 53 40.2332 50.2435 45.2383 45.2383C50.2435 40.2332 53 33.5783 53 26.5C53 21.5838 51.6579 16.8314 49.1093 12.6742ZM42.959 8.62415C43.0229 9.37868 43.6213 9.97713 44.3759 10.041L47.1194 10.2723L43.4058 13.9859L39.3558 13.6442L39.0141 9.5942L42.7277 5.88058L42.959 8.62415ZM31.7793 26.5C31.7793 29.411 29.411 31.7793 26.5 31.7793C23.589 31.7793 21.2207 29.411 21.2207 26.5C21.2207 23.589 23.589 21.2207 26.5 21.2207C27.3916 21.2207 28.2315 21.4435 28.9686 21.8353L25.4022 25.4022C24.7956 26.0083 24.7956 26.9913 25.4022 27.5978C25.705 27.9011 26.1025 28.0527 26.5 28.0527C26.8975 28.0527 27.295 27.9011 27.5978 27.5978L31.1647 24.0314C31.5565 24.7685 31.7793 25.6084 31.7793 26.5ZM31.2257 19.5782C29.8792 18.6563 28.2517 18.1152 26.5 18.1152C21.8766 18.1152 18.1152 21.8766 18.1152 26.5C18.1152 31.1234 21.8766 34.8848 26.5 34.8848C31.1234 34.8848 34.8848 31.1234 34.8848 26.5C34.8848 24.7483 34.3437 23.1208 33.4218 21.7743L37.8552 17.3409C39.8806 19.8471 41.0957 23.0342 41.0957 26.5C41.0957 34.5479 34.5479 41.0957 26.5 41.0957C18.4521 41.0957 11.9043 34.5479 11.9043 26.5C11.9043 18.4521 18.4521 11.9043 26.5 11.9043C29.9658 11.9043 33.1529 13.1194 35.6591 15.1448L31.2257 19.5782ZM43.0423 43.0423C38.6239 47.4611 32.7489 49.8945 26.5 49.8945C20.2511 49.8945 14.3761 47.4611 9.95772 43.0423C5.53889 38.6239 3.10547 32.7489 3.10547 26.5C3.10547 20.2511 5.53889 14.3761 9.95772 9.95772C14.3761 5.53889 20.2511 3.10547 26.5 3.10547C30.5881 3.10547 34.5479 4.15559 38.0598 6.15675L36.3085 7.90803C36.0255 8.19108 35.8641 8.57037 35.854 8.96623C35.8528 9.02284 35.8544 9.07945 35.8589 9.13647L36.0679 11.614C33.3074 9.83318 30.0224 8.79883 26.5 8.79883C16.7396 8.79883 8.79883 16.7396 8.79883 26.5C8.79883 36.2604 16.7396 44.2012 26.5 44.2012C36.2604 44.2012 44.2012 36.2604 44.2012 26.5C44.2012 22.9776 43.1668 19.6926 41.386 16.9321L43.8635 17.1411C43.9072 17.1444 43.9509 17.1464 43.9941 17.1464C44.0014 17.1464 44.0091 17.1456 44.0164 17.1452C44.037 17.1452 44.0572 17.1436 44.0778 17.1423C44.1114 17.1403 44.1454 17.1383 44.1785 17.1343C44.1992 17.1314 44.2198 17.1282 44.2404 17.125C44.2731 17.1197 44.3055 17.1136 44.3378 17.1064C44.3585 17.1015 44.3787 17.0963 44.3989 17.091C44.4304 17.0825 44.4616 17.0728 44.4927 17.0623C44.5129 17.0554 44.5327 17.0485 44.5526 17.0409C44.5829 17.0291 44.6128 17.0162 44.6427 17.002C44.6617 16.9935 44.6807 16.9851 44.6997 16.9753C44.7297 16.96 44.7588 16.943 44.7875 16.926C44.8049 16.9155 44.8223 16.9058 44.8392 16.8953C44.87 16.8751 44.8995 16.8532 44.929 16.831C44.9428 16.8205 44.9569 16.8112 44.9703 16.8003C45.0123 16.7663 45.0532 16.7303 45.092 16.6915L46.8432 14.9402C48.8444 18.4521 49.8945 22.4119 49.8945 26.5C49.8945 32.7489 47.4611 38.6239 43.0423 43.0423Z" fill="#BCBDBF"></path>
  </g>
  <defs>
    <clipPath id="clip0_1_317">
      <rect width="53" height="53" fill="white"></rect>
    </clipPath>
  </defs>
</svg>
