<?xml version="1.0" encoding="UTF-8"?>
<svg xmlns="http://www.w3.org/2000/svg" width="49" height="43" viewBox="0 0 49 43" fill="none">
  <g clip-path="url(#clip0_1_260)">
    <path d="M20.6719 8.25674H20.1674C20.7884 7.42182 21.1504 6.43043 21.1504 5.36688C21.1504 2.40758 18.3598 0 14.9297 0C11.4996 0 8.70898 2.40758 8.70898 5.36688C8.70898 6.43043 9.07093 7.42182 9.69195 8.25674H9.1875C5.2297 8.25674 2.00977 11.0347 2.00977 14.4493V22.8712C2.00977 24.9199 3.94172 26.5867 6.31641 26.5867C6.81952 26.5867 7.30282 26.5119 7.75195 26.3745V38.559C7.75195 40.6077 9.68391 42.2745 12.0586 42.2745C13.1606 42.2745 14.1672 41.9156 14.9297 41.3261C15.6922 41.9156 16.6988 42.2745 17.8008 42.2745C20.1755 42.2745 22.1074 40.6077 22.1074 38.559V26.3745C22.5566 26.5119 23.0399 26.5867 23.543 26.5867C25.9177 26.5867 27.8496 24.9199 27.8496 22.8712V14.4493C27.8496 11.0347 24.6297 8.25674 20.6719 8.25674ZM11.5801 5.36688C11.5801 3.77341 13.0827 2.47702 14.9297 2.47702C16.7767 2.47702 18.2793 3.77341 18.2793 5.36688C18.2793 6.96035 16.7767 8.25674 14.9297 8.25674C13.0827 8.25674 11.5801 6.96035 11.5801 5.36688ZM24.9785 22.8712C24.9785 23.5541 24.3345 24.1097 23.543 24.1097C22.7514 24.1097 22.1074 23.5541 22.1074 22.8712V16.2658C22.1074 15.5818 21.4647 15.0273 20.6719 15.0273C19.8791 15.0273 19.2363 15.5818 19.2363 16.2658V38.559C19.2363 39.2419 18.5923 39.7975 17.8008 39.7975C17.0092 39.7975 16.3652 39.2419 16.3652 38.559V28.6509C16.3652 27.9669 15.7225 27.4124 14.9297 27.4124C14.1369 27.4124 13.4941 27.9669 13.4941 28.6509V38.559C13.4941 39.2419 12.8502 39.7975 12.0586 39.7975C11.267 39.7975 10.623 39.2419 10.623 38.559V16.2658C10.623 15.5818 9.9803 15.0273 9.1875 15.0273C8.3947 15.0273 7.75195 15.5818 7.75195 16.2658V22.8712C7.75195 23.5541 7.10797 24.1097 6.31641 24.1097C5.52485 24.1097 4.88086 23.5541 4.88086 22.8712V14.4493C4.88086 12.4005 6.81282 10.7338 9.1875 10.7338H20.6719C23.0466 10.7338 24.9785 12.4005 24.9785 14.4493V22.8712Z" fill="#BCBDBF"></path>
    <path d="M45.5547 0H26.4141C25.6213 0 24.9785 0.554523 24.9785 1.23851C24.9785 1.9225 25.6213 2.47702 26.4141 2.47702H32.6348V41.036C32.6348 41.72 33.2775 42.2745 34.0703 42.2745H45.5547C46.3475 42.2745 46.9902 41.72 46.9902 41.036V1.23851C46.9902 0.554523 46.3475 0 45.5547 0ZM44.1191 39.7975H35.5059V37.2379H36.9414C37.7342 37.2379 38.377 36.6834 38.377 35.9994C38.377 35.3154 37.7342 34.7609 36.9414 34.7609H35.5059V32.2839H38.8555C39.6483 32.2839 40.291 31.7293 40.291 31.0453C40.291 30.3614 39.6483 29.8068 38.8555 29.8068H35.5059V27.3298H36.9414C37.7342 27.3298 38.377 26.7753 38.377 26.0913C38.377 25.4073 37.7342 24.8528 36.9414 24.8528H35.5059V22.3758H38.8555C39.6483 22.3758 40.291 21.8212 40.291 21.1373C40.291 20.4533 39.6483 19.8987 38.8555 19.8987H35.5059V17.4217H36.9414C37.7342 17.4217 38.377 16.8672 38.377 16.1832C38.377 15.4992 37.7342 14.9447 36.9414 14.9447H35.5059V12.4677H38.8555C39.6483 12.4677 40.291 11.9132 40.291 11.2292C40.291 10.5452 39.6483 9.99066 38.8555 9.99066H35.5059V7.51363H36.9414C37.7342 7.51363 38.377 6.95911 38.377 6.27512C38.377 5.59113 37.7342 5.03661 36.9414 5.03661H35.5059V2.47702H44.1191V39.7975Z" fill="#BCBDBF"></path>
  </g>
  <defs>
    <clipPath id="clip0_1_260">
      <rect width="49" height="42.2745" fill="white"></rect>
    </clipPath>
  </defs>
</svg>
