<?xml version="1.0" encoding="UTF-8"?>
<svg xmlns="http://www.w3.org/2000/svg" width="48" height="48" viewBox="0 0 48 48" fill="none">
  <g clip-path="url(#clip0_1_340)">
    <path d="M34.7532 0H13.2459C5.94212 0 0 5.9424 0 13.2462V34.7535C0 42.0576 5.94212 47.9997 13.2459 47.9997H34.7532C42.0576 47.9997 47.9997 42.0573 47.9997 34.7535V13.2462C48 5.9424 42.0576 0 34.7532 0ZM43.7412 34.7535C43.7412 39.7093 39.7093 43.7409 34.7535 43.7409H13.2459C8.2904 43.7412 4.25877 39.7093 4.25877 34.7535V13.2462C4.25877 8.29068 8.2904 4.25877 13.2459 4.25877H34.7532C39.709 4.25877 43.7409 8.29068 43.7409 13.2462V34.7535H43.7412Z" fill="#BCBDBF"></path>
    <path d="M23.9999 11.6321C17.1799 11.6321 11.6316 17.1804 11.6316 24.0004C11.6316 30.8201 17.1799 36.3681 23.9999 36.3681C30.8199 36.3681 36.3682 30.8201 36.3682 24.0004C36.3682 17.1804 30.8199 11.6321 23.9999 11.6321ZM23.9999 32.1091C19.5285 32.1091 15.8904 28.4715 15.8904 24.0001C15.8904 19.5284 19.5282 15.8906 23.9999 15.8906C28.4716 15.8906 32.1094 19.5284 32.1094 24.0001C32.1094 28.4715 28.4713 32.1091 23.9999 32.1091Z" fill="#BCBDBF"></path>
    <path d="M36.8868 8.021C36.0662 8.021 35.2602 8.35318 34.6807 8.93521C34.0984 9.5144 33.7637 10.3207 33.7637 11.1441C33.7637 11.9649 34.0987 12.7709 34.6807 13.353C35.2599 13.9322 36.0662 14.2672 36.8868 14.2672C37.7101 14.2672 38.5136 13.9322 39.0957 13.353C39.6777 12.7709 40.0099 11.9646 40.0099 11.1441C40.0099 10.3207 39.6777 9.5144 39.0957 8.93521C38.5165 8.35318 37.7101 8.021 36.8868 8.021Z" fill="#BCBDBF"></path>
  </g>
  <defs>
    <clipPath id="clip0_1_340">
      <rect width="48" height="48" fill="white"></rect>
    </clipPath>
  </defs>
</svg>
