<?xml version="1.0" encoding="UTF-8"?>
<svg xmlns="http://www.w3.org/2000/svg" width="55" height="55" viewBox="0 0 55 55" fill="none">
  <g clip-path="url(#clip0_1_366)">
    <path d="M44.0905 14.9608C43.6708 14.5415 42.9908 14.5417 42.5712 14.9612C42.1519 15.3808 42.1521 16.061 42.5717 16.4805C45.0062 18.9136 46.347 22.1497 46.347 25.5925C46.347 29.0352 45.0063 32.2713 42.5717 34.7044C42.1521 35.1238 42.1519 35.804 42.5712 36.2237C42.781 36.4336 43.056 36.5385 43.331 36.5385C43.6059 36.5385 43.8807 36.4337 44.0904 36.2241C46.9308 33.385 48.4953 29.6094 48.4953 25.5925C48.4953 21.5755 46.9311 17.7997 44.0905 14.9608Z" fill="#BCBDBF" stroke="#BCBDBF" stroke-width="1.2"></path>
    <path d="M40.4035 18.6453C39.9839 18.226 39.3039 18.226 38.8842 18.6453C38.4647 19.0648 38.4647 19.745 38.8842 20.1646C41.8771 23.1574 41.8771 28.0272 38.8842 31.0201C38.4647 31.4396 38.4647 32.1198 38.8842 32.5394C39.094 32.7491 39.3689 32.854 39.6438 32.854C39.9187 32.854 40.1936 32.7491 40.4034 32.5394C44.234 28.7087 44.234 22.4759 40.4035 18.6453Z" fill="#BCBDBF" stroke="#BCBDBF" stroke-width="1.2"></path>
    <path d="M34.7908 17.5268L28.7771 0.712529C28.6243 0.285098 28.2195 0 27.7656 0H7.8003C7.23461 0 6.76593 0.438604 6.72833 1.00311C6.10733 10.3579 6.5628 15.7661 10.9049 23.0835C11.1036 23.4183 11.8639 24.7743 12.0683 25.1012C14.3485 29.2314 14.0147 30.2114 12.6166 34.3103C12.2584 35.3605 11.8126 36.6675 11.3388 38.2459C10.2844 41.7589 9.88847 45.1568 9.16971 51.3253C9.07915 52.1028 8.98333 52.9257 8.8801 53.7999C8.84422 54.1046 8.94036 54.4101 9.14414 54.6394C9.34792 54.8686 9.64011 55 9.94691 55H26.4076C26.8993 55 27.3281 54.6662 27.4488 54.1896C27.4488 54.1896 33.4223 30.6986 33.6463 29.8951C34.7242 26.0281 35.8388 22.0293 34.8257 17.6467C34.8166 17.606 34.8049 17.5661 34.7908 17.5268ZM13.3506 23.0099C13.1628 22.6834 12.9641 22.3435 12.7524 21.987C11.3903 19.6916 10.4388 17.616 9.79695 15.5314C12.8035 15.5896 14.7692 16.5833 15.2658 18.3395C15.7068 19.8986 14.8864 21.7961 13.3506 23.0099ZM25.5717 52.8516H11.1548C11.2061 52.4123 11.2556 51.9868 11.3039 51.5739C11.6346 48.7345 11.8958 46.4939 12.1832 44.5709H27.6702L25.5717 52.8516ZM28.2145 42.4225H12.5421C12.7795 41.162 13.0517 40.0128 13.3967 38.8636C13.8589 37.3234 14.2792 36.0911 14.6501 35.004C16.1362 30.6465 16.5353 29.0825 14.3941 24.9129C16.7991 23.1862 18.0445 20.2698 17.3332 17.7548C16.942 16.3713 15.3773 13.2796 9.24362 13.3815C9.02856 12.3494 8.87935 11.2964 8.78407 10.1962H14.3194C14.9126 10.1962 15.3936 9.71513 15.3936 9.12194C15.3936 8.52876 14.9126 8.04772 14.3194 8.04772H8.66569C8.61778 6.26173 8.6789 4.32706 8.80888 2.14844H27.009L29.1189 8.04783H23.9657C23.3725 8.04783 22.8915 8.52887 22.8915 9.12205C22.8915 9.71523 23.3725 10.1963 23.9657 10.1963H29.8873L32.7388 18.1693H28.2559C23.5619 18.1693 19.743 21.9896 19.743 26.6854C19.743 31.3795 23.5619 35.1986 28.2559 35.1986H30.0451L28.2145 42.4225ZM31.5769 29.3183C31.3496 30.134 30.5896 33.0502 30.5896 33.0502H28.2559C24.7465 33.0502 21.8915 30.195 21.8915 26.6854C21.8915 23.1742 24.7465 20.3178 28.2559 20.3178H33.0496C33.2391 23.3551 32.4271 26.2684 31.5769 29.3183Z" fill="#BCBDBF" stroke="#BCBDBF" stroke-width="1.2"></path>
    <path d="M20.2184 9.12207C20.2184 8.52889 19.7359 8.04785 19.1426 8.04785C18.5493 8.04785 18.0684 8.52889 18.0684 9.12207C18.0684 9.71525 18.5494 10.1963 19.1426 10.1963H19.1456C19.7389 10.1963 20.2184 9.71525 20.2184 9.12207Z" fill="#BCBDBF" stroke="#BCBDBF" stroke-width="1.2"></path>
  </g>
  <defs>
    <clipPath id="clip0_1_366">
      <rect width="55" height="55" fill="white"></rect>
    </clipPath>
  </defs>
</svg>
