<?xml version="1.0" encoding="UTF-8"?>
<svg xmlns="http://www.w3.org/2000/svg" width="47" height="47" viewBox="0 0 47 47" fill="none">
  <g clip-path="url(#clip0_1_323)">
    <path d="M42.869 17.9918H37.3612V13.8609C37.3612 13.8607 37.3612 13.8604 37.3612 13.8601C37.3612 13.8599 37.3612 13.8598 37.3612 13.8597C37.3612 13.8582 37.3611 13.8567 37.3611 13.8552C37.3604 13.4107 37.2817 12.9296 37.1214 12.4778C40.2762 12.6138 42.869 10.084 42.869 6.97619C42.869 3.93918 40.3982 1.46838 37.3612 1.46838C34.3242 1.46838 31.8534 3.93918 31.8534 6.97619C31.8534 7.30656 31.8843 7.62969 31.9403 7.94427L26.5915 4.24119C26.5843 4.23624 26.5772 4.23137 26.5699 4.22651C24.9364 3.14074 22.745 3.35829 21.3594 4.74387L15.1632 10.9402C13.5527 12.5506 13.5527 15.1712 15.1632 16.7816C16.7736 18.3921 19.3941 18.3922 21.0046 16.7816L24.7766 13.0097L26.7898 14.46L19.294 21.9558L2.77061 38.4792C1.16012 40.0896 1.16012 42.7102 2.77061 44.3206C4.38513 45.9353 6.99729 45.9354 8.61209 44.3206L22.2147 30.718L24.6349 33.1382L19.294 38.4792C17.6794 40.0938 17.6791 42.7058 19.294 44.3206C20.9085 45.9353 23.5207 45.9354 25.1355 44.3206L33.3972 36.0589C35.0118 34.4443 35.0121 31.8323 33.3972 30.2175L28.0562 24.8765L29.3616 23.5712C29.9496 25.1366 31.462 26.2535 33.2304 26.2535H42.8691C45.1468 26.2535 46.9999 24.4004 46.9999 22.1226C46.9998 19.8449 45.1467 17.9918 42.869 17.9918ZM37.3612 4.22228C38.8797 4.22228 40.1151 5.45768 40.1151 6.97619C40.1151 8.49469 38.8797 9.73009 37.3612 9.73009C35.8427 9.73009 34.6073 8.49469 34.6073 6.97619C34.6073 5.45768 35.8427 4.22228 37.3612 4.22228ZM25.4359 10.0907C24.8882 9.69603 24.1348 9.7568 23.6575 10.2342L19.0574 14.8344C18.519 15.3726 17.6489 15.3728 17.1104 14.8344C16.5737 14.2976 16.5737 13.4243 17.1104 12.8874L23.3067 6.69116C23.7661 6.2319 24.4918 6.15818 25.0366 6.51417L30.8134 10.5135C30.6341 10.6423 30.4652 10.7845 30.3089 10.941L28.7628 12.4871L25.4359 10.0907ZM6.66471 42.3734C6.12633 42.9117 5.25628 42.9118 4.7178 42.3734C4.18106 41.8366 4.18106 40.9633 4.7178 40.4265L18.4861 26.6582C18.686 27.0754 18.9571 27.4604 19.294 27.7972L20.2674 28.7706L6.66471 42.3734ZM42.869 23.4996H33.2303C32.4711 23.4996 31.8534 22.8819 31.8534 22.1226V20.509C31.8534 19.9521 31.5179 19.45 31.0033 19.2369C30.489 19.0239 29.8965 19.1415 29.5027 19.5354L25.1352 23.9029C24.5975 24.4406 24.5975 25.3124 25.1352 25.8501L31.4498 32.1647C31.9882 32.7032 31.9882 33.5732 31.4498 34.1116L23.1881 42.3733C22.6497 42.9117 21.7798 42.9117 21.2412 42.3733C20.7028 41.8349 20.7027 40.9648 21.2412 40.4264L27.5558 34.1118C28.0936 33.5741 28.0936 32.7023 27.5558 32.1646L21.2412 25.85C20.7045 25.3132 20.7045 24.4399 21.2412 23.9031L32.2567 12.8877C33.1147 12.0287 34.6051 12.6442 34.6071 13.859C34.6071 13.8601 34.6072 13.8612 34.6072 13.8623V19.3688C34.6072 20.1293 35.2237 20.7458 35.9841 20.7458H42.8689C43.6281 20.7458 44.2458 21.3635 44.2458 22.1227C44.2458 22.882 43.6282 23.4996 42.869 23.4996Z" fill="#BCBDBF"></path>
    <path d="M11.1992 6.9762H4.31445C3.55401 6.9762 2.9375 7.5927 2.9375 8.35315C2.9375 9.11359 3.55401 9.7301 4.31445 9.7301H11.1992C11.9596 9.7301 12.5762 9.11359 12.5762 8.35315C12.5762 7.5927 11.9596 6.9762 11.1992 6.9762Z" fill="#BCBDBF"></path>
    <path d="M11.1992 17.9918H4.31445C3.55401 17.9918 2.9375 18.6083 2.9375 19.3688C2.9375 20.1292 3.55401 20.7457 4.31445 20.7457H11.1992C11.9596 20.7457 12.5762 20.1292 12.5762 19.3688C12.5762 18.6083 11.9596 17.9918 11.1992 17.9918Z" fill="#BCBDBF"></path>
    <path d="M8.4453 12.484H1.37695C0.616507 12.484 0 13.1005 0 13.861C0 14.6214 0.616507 15.2379 1.37695 15.2379H8.4453C9.20574 15.2379 9.82225 14.6214 9.82225 13.861C9.82225 13.1005 9.20574 12.484 8.4453 12.484Z" fill="#BCBDBF"></path>
  </g>
  <defs>
    <clipPath id="clip0_1_323">
      <rect width="47" height="47" fill="white"></rect>
    </clipPath>
  </defs>
</svg>
