<?xml version="1.0" encoding="UTF-8"?>
<svg xmlns="http://www.w3.org/2000/svg" width="54" height="54" viewBox="0 0 54 54" fill="none">
  <g clip-path="url(#clip0_1_307)">
    <path d="M47.9804 19.055L37.9818 15.9704C37.2774 10.538 32.6212 6.32812 27 6.32812C21.379 6.32812 16.7227 10.5379 16.0182 15.9704L6.01969 19.055C5.30071 19.2768 4.83738 19.9744 4.91174 20.7231L8.07602 52.5742C8.15639 53.3835 8.8372 54 9.65036 54H44.3495C45.1627 54 45.8434 53.3835 45.9238 52.5743L49.0883 20.7231C49.1627 19.9744 48.6994 19.2767 47.9804 19.055ZM27 9.4922C31.3617 9.4922 34.9102 13.0407 34.9102 17.4024C34.9102 21.7641 31.3616 25.3126 27 25.3126C22.6385 25.3126 19.0899 21.7641 19.0899 17.4024C19.0899 13.0407 22.6383 9.4922 27 9.4922ZM42.9168 50.8359H11.083L8.18824 21.6972L16.0827 19.2616C16.9695 24.4858 21.5271 28.4766 27 28.4766C32.4729 28.4766 37.0305 24.4859 37.9174 19.2617L45.8119 21.6972L42.9168 50.8359Z" fill="#BCBDBF"></path>
    <path d="M10.5629 13.2018C10.8563 13.7669 11.4607 14.1024 12.0944 14.0497C12.7291 13.9984 13.271 13.5717 13.47 12.9668C15.3975 7.10356 20.8348 3.16407 27.0001 3.16407C33.1653 3.16407 38.6025 7.10356 40.5301 12.9668C40.749 13.6328 41.3679 14.0551 42.0327 14.0551C42.1965 14.0551 42.363 14.0295 42.5271 13.9756C43.3572 13.7027 43.8088 12.8087 43.5359 11.9786C42.4005 8.52497 40.245 5.55327 37.3024 3.38493C34.2971 1.1705 30.7345 0 27.0001 0C23.2654 0 19.703 1.1705 16.6977 3.38503C14.6949 4.86086 13.0568 6.70868 11.8567 8.82735L11.4344 8.01407C11.0318 7.23856 10.0769 6.93639 9.30129 7.33907C8.52588 7.74165 8.22371 8.69678 8.62629 9.47219L10.5629 13.2018Z" fill="#BCBDBF"></path>
    <path d="M25.8813 18.521C26.1902 18.8299 26.5951 18.9844 26.9999 18.9844C27.4047 18.9844 27.8097 18.8299 28.1186 18.521C28.7363 17.9032 28.7363 16.9016 28.1186 16.2837L25.8895 14.0547C25.2718 13.437 24.27 13.437 23.6522 14.0547C23.0344 14.6725 23.0344 15.6742 23.6523 16.292L25.8813 18.521Z" fill="#BCBDBF"></path>
    <path d="M26.7805 32.6962C25.9068 32.6962 25.1985 33.4045 25.1985 34.2782V43.9795C25.1985 44.8532 25.9068 45.5616 26.7805 45.5616C27.6542 45.5616 28.3625 44.8532 28.3625 43.9795V34.2782C28.3625 33.4045 27.6542 32.6962 26.7805 32.6962Z" fill="#BCBDBF"></path>
  </g>
  <defs>
    <clipPath id="clip0_1_307">
      <rect width="54" height="54" fill="white"></rect>
    </clipPath>
  </defs>
</svg>
